# xmcd CD database file
#
# Track frame offsets:
#	150
#	14250
#	37072
#	59732
#	77380
#	97452
#	116197
#	135980
#	157022
#	178955
#	197522
#
# Disc length: 2949 seconds
#
# Revision: 3
# Processed by: cddbd v1.5.1PL2 Copyright (c) Steve Scherf et al.
# Submitted via: CDex 1.51
#
DISCID=9c0b830b
DTITLE=倖田來未 - Best〜first things〜DISC2
DYEAR=2005
DGENRE=JPop
TTITLE0=キューティーハニー
TTITLE1=Chase
TTITLE2=奇跡
TTITLE3=Selfish
TTITLE4=hands
TTITLE5=Hot Stuff feat.KM-MARKIT
TTITLE6=Butterfly
TTITLE7=flower
TTITLE8=Promise
TTITLE9=Star
TTITLE10=the meaning of peace
EXTD=YEAR: 2005
EXTT0=
EXTT1=
EXTT2=
EXTT3=
EXTT4=
EXTT5=
EXTT6=
EXTT7=
EXTT8=
EXTT9=
EXTT10=
PLAYORDER=
